<?xml version="1.0" encoding="UTF-8"?>
<svg width="72px" height="72px" viewBox="0 0 72 72" version="1.1" xmlns="http://www.w3.org/2000/svg" xmlns:xlink="http://www.w3.org/1999/xlink">
    <!-- Generator: Sketch 52.5 (67469) - http://www.bohemiancoding.com/sketch -->
    <title>Icon</title>
    <desc>Created with Sketch.</desc>
    <g id="Icon" stroke="none" stroke-width="1" fill="none" fill-rule="evenodd">
        <g id="Group" transform="translate(4.000000, 5.000000)" fill="#4A4A4A">
            <path d="M17.8204298,61.9927703 C16.955709,59.3269475 14.7193787,57.3786468 12.0208788,56.940176 L5.7201321,37.0244108 L25.6088594,11.8134635 L26.0527756,12.741491 C23.7709999,16.0406353 23.2965119,20.2842083 24.9787847,23.8483601 L27.8427605,29.8731737 C28.1949623,30.6009843 29.0537722,30.8976625 29.7616243,30.5360505 L45.169814,22.7141043 C45.5327843,22.5411754 45.8088959,22.2199561 45.9313025,21.8282132 C46.053709,21.4364703 46.0112514,21.0099168 45.8142086,20.6518209 L42.9502328,14.6270073 C41.2385355,11.0516817 38.3249557,8.83041243 34.4521769,8.94099738 C34.4554991,8.89523258 33.388404,6.60446926 31.2508917,2.06870745 C30.8986898,1.3408969 30.03988,1.04421867 29.3320279,1.40583065 L28.0432388,2.05397685 L27.4131641,0.728223248 C27.0337513,0.0625567597 26.2192597,-0.189100399 25.5460783,0.151341286 C24.8728968,0.49178297 24.5692008,1.30893062 24.8499058,2.02451566 L25.4799805,3.35026926 L24.1911913,3.99841547 C23.8350065,4.16665617 23.5614248,4.47772537 23.4342403,4.8590879 C23.3070558,5.24045042 23.3373854,5.65877155 23.518157,6.01650707 L24.3343901,7.69579497 C24.0910136,7.77767981 23.8734336,7.92519789 23.7043155,8.12298224 L0.31995315,37.4957899 C-0.026893532,37.9355824 -0.0979347901,38.5409788 0.137214943,39.0530406 C0.372364677,39.5651023 0.872064353,39.8931519 1.42258383,39.8968769 C1.70134759,39.8830909 1.97011982,39.7858105 2.19585729,39.6169956 L7.79492996,57.1022126 C5.40327367,57.7274051 3.49313637,59.5754347 2.74001269,61.9927703 C2.62324584,62.0024099 7.65005154,62.0024099 17.8204298,61.9927703 Z" id="Shape-Copy-2" fill-rule="nonzero"></path>
            <path d="M41.5820896,47.0649926 L38,47.0649926 L38,40.310192 L41.5820896,40.310192 L41.5820896,40.1964549 C41.5820896,35.2433243 44.9723066,32 49.880597,32 C51.5804647,32 53.2255917,32.3525416 54.4465929,32.9619836 L55.196466,33.33627 L53.4095194,39.3853444 L52.2793942,38.6285333 C51.9599638,38.4146204 51.5168901,38.2836041 51,38.2836041 C49.9043319,38.2836041 49.3134328,38.9027383 49.3134328,40.1964549 L49.3134328,40.310192 L53.7014925,40.310192 L53.7014925,47.0649926 L49.3134328,47.0649926 L49.3134328,63 L41.5820896,63 L41.5820896,47.0649926 Z" id="Path" stroke="#FFFFFF" stroke-width="2"></path>
        </g>
        <path d="M67,38.7218715 L67,67 L27.0062205,67 L36.3637451,37.7421383 L49.1706876,31.6158665 L67,38.7218715 Z M72,40.7146587 L138,67.0194494 L72,67.0194494 L72,40.7146587 Z" id="Combined-Shape" fill="#F8E71C"></path>
        <path d="M45.5820896,52.0649926 L42,52.0649926 L42,45.310192 L45.5820896,45.310192 L45.5820896,45.1964549 C45.5820896,40.2433243 48.9723066,37 53.880597,37 C55.5804647,37 57.2255917,37.3525416 58.4465929,37.9619836 L59.196466,38.33627 L57.4095194,44.3853444 L56.2793942,43.6285333 C55.9599638,43.4146204 55.5168901,43.2836041 55,43.2836041 C53.9043319,43.2836041 53.3134328,43.9027383 53.3134328,45.1964549 L53.3134328,45.310192 L57.7014925,45.310192 L57.7014925,52.0649926 L53.3134328,52.0649926 L53.3134328,68 L45.5820896,68 L45.5820896,52.0649926 Z" id="Path" stroke="#FFFFFF" stroke-width="2" fill="#4A4A4A"></path>
    </g>
</svg>