<?xml version="1.0" encoding="UTF-8"?>
<svg width="270px" height="149px" viewBox="0 0 270 149" version="1.1" xmlns="http://www.w3.org/2000/svg" xmlns:xlink="http://www.w3.org/1999/xlink">
    <!-- Generator: Sketch 52.5 (67469) - http://www.bohemiancoding.com/sketch -->
    <title>logo</title>
    <desc>Created with Sketch.</desc>
    <g id="logo" stroke="none" stroke-width="1" fill="none" fill-rule="evenodd">
        <path d="M38.7400648,134.984258 C36.8602369,129.179644 31.9986494,124.937376 26.1323453,123.982641 L12.4350698,80.6176687 L55.6714334,25.7228641 L56.6364687,27.7435692 C51.6760867,34.9271898 50.6445911,44.1672278 54.3017058,51.9278809 L60.5277402,65.0464267 C61.2933964,66.6311754 63.1603743,67.2771684 64.6991832,66.4897874 L98.1952478,49.4581303 C98.9843137,49.0815916 99.5845563,48.3821624 99.8506575,47.5291738 C100.116759,46.6761853 100.02446,45.7473995 99.5961055,44.9676745 L93.3700712,31.8491288 C89.6489902,24.0641457 83.3151211,19.2275109 74.8960368,19.4683008 C74.903259,19.3686516 72.5834871,14.3806992 67.936721,4.50444364 C67.1710648,2.91969487 65.3040869,2.27370194 63.765278,3.06108286 L60.9635626,4.47236895 L59.593835,1.58564739 C58.7690246,0.136212299 56.9983907,-0.411750869 55.5349528,0.329533444 C54.0715149,1.07081776 53.411306,2.85009087 54.0215343,4.40821958 L55.3912619,7.29494114 L52.5895464,8.70622723 C51.8152315,9.07255778 51.2204888,9.74988589 50.9440007,10.580272 C50.6675125,11.4106582 50.7334466,12.3215187 51.1264283,13.1004589 L52.9008481,16.7569729 C52.3717686,16.9352706 51.8987686,17.2564793 51.5311206,17.6871387 L0.695550326,81.6440586 C-0.0584642,82.6016714 -0.212901718,83.9198732 0.298293355,85.0348464 C0.809488427,86.1498195 1.89579207,86.8641211 3.09257354,86.8722321 C3.69858172,86.842214 4.28286916,86.6303938 4.77360281,86.2628131 L16.9454999,124.335463 C11.7462471,125.696769 7.59377472,129.720705 5.95654933,134.984258 C5.70270834,135.005247 16.6305468,135.005247 38.7400648,134.984258 Z" id="Shape-Copy-2" fill="#4A4A4A" fill-rule="nonzero"></path>
        <polygon id="Path-8-Copy" fill="#FFC700" points="68.8412127 69.0194494 49 132 250 132 99.9558171 53.3573001"></polygon>
        <path d="M64.9253731,102.129985 L58,102.129985 L58,88.620384 L64.9253731,88.620384 L64.9253731,88.3929099 C64.9253731,78.502272 71.4955793,72 81.0358209,72 C84.3414491,72 87.5412399,72.7093421 89.9175882,73.9363564 L91.3728402,74.6877678 L87.9056533,86.829422 L85.6103287,85.2393079 C85.008293,84.8222403 84.1745689,84.5672083 83.2,84.5672083 C81.1354194,84.5672083 80.0059701,85.7914337 80.0059701,88.3929099 L80.0059701,88.620384 L88.4895522,88.620384 L88.4895522,102.129985 L80.0059701,102.129985 L80.0059701,134 L64.9253731,134 L64.9253731,102.129985 Z" id="Path" stroke="#FFFFFF" stroke-width="4" fill="#4A4A4A"></path>
        <path d="M202.014553,129.309789 C198.893131,131.709027 195.210957,133.008683 191.257143,133.008683 C179.158677,133.008683 171,124.188682 171,110.004342 C171,95.9589081 179.185806,87 191.257143,87 C195.243659,87 198.916456,88.2289542 202.028571,90.5788383 L202.028571,88.024602 L217,88.024602 L217,128.447178 C217,143.264226 207.054624,150 192.628571,150 C184.746898,150 178.910183,148.054811 173.491147,143.364639 L172.199471,142.246694 L179.384128,130.695158 L181.164564,132.650627 C183.954568,135.714915 187.655221,137.120116 192.628571,137.120116 C198.154665,137.120116 201.763374,134.650487 202.014553,129.309789 Z M200.035216,115.005135 L200.035216,103.001568 C198.485109,101.082614 195.442119,99.6555043 192.692359,99.6555043 C187.523522,99.6555043 184.235216,103.140608 184.235216,109.01151 C184.235216,114.882413 187.523522,118.367516 192.692359,118.367516 C195.383663,118.367516 198.450672,116.910206 200.035216,115.005135 Z" id="fling-copy-3" stroke="#FFFFFF" stroke-width="4" fill="#4A4A4A"></path>
        <path d="M142.433775,104.624933 L142.433775,134.5 L126.5,134.5 L126.5,87.5424242 L142.433775,87.5424242 L142.433775,90.0080598 C145.795856,87.8233833 149.960153,86.5 154.483444,86.5 C164.69634,86.5 170.5,92.524892 170.5,102.377778 L170.5,134.5 L154.566225,134.5 L154.566225,106.634343 C154.566225,102.630234 153.137115,101.316162 149.403974,101.316162 C146.65513,101.316162 144.123112,102.633227 142.433775,104.624933 Z" id="Path" stroke="#FFFFFF" stroke-width="5" fill="#4A4A4A"></path>
        <path d="M106,134 L91,134 L91,73 L106,73 L106,134 Z" id="Path" stroke="#FFFFFF" stroke-width="4" fill="#4A4A4A"></path>
        <path d="M115.5,87 C110.860401,87 107,83.149042 107,78.4569536 C107,73.7724459 110.851728,70 115.5,70 C120.208079,70 124,73.7476321 124,78.4569536 C124,83.1744728 120.199641,87 115.5,87 Z" id="Path" stroke="#FFFFFF" stroke-width="4" fill="#4A4A4A"></path>
        <path d="M123,134 L108,134 L108,88 L123,88 L123,134 Z" id="Path" stroke="#FFFFFF" stroke-width="4" fill="#4A4A4A"></path>
    </g>
</svg>